<svg xmlns="http://www.w3.org/2000/svg" xmlns:xlink="http://www.w3.org/1999/xlink" width="708.201" height="708.201"><defs><linearGradient id="c"><stop offset="0" style="stop-color:#000;stop-opacity:1"/><stop offset="1" style="stop-color:#a8a8a8;stop-opacity:1"/></linearGradient><linearGradient id="b"><stop offset="0" style="stop-color:#815700;stop-opacity:1"/><stop offset="1" style="stop-color:#f0d2a0;stop-opacity:1"/></linearGradient><linearGradient id="a"><stop offset="0" style="stop-color:#9a7c3b;stop-opacity:1"/><stop offset="1" style="stop-color:#6d4c00;stop-opacity:1"/></linearGradient><linearGradient xlink:href="#b" id="e" x1="719.429" x2="53.429" y1="840.362" y2="174.362" gradientUnits="userSpaceOnUse"/><linearGradient xlink:href="#c" id="f" x1="719.429" x2="53.429" y1="840.362" y2="174.362" gradientUnits="userSpaceOnUse"/><linearGradient xlink:href="#c" id="g" x1="58.929" x2="713.929" y1="179.862" y2="834.862" gradientUnits="userSpaceOnUse"/><linearGradient xlink:href="#c" id="h" x1="1451.934" x2="743.954" y1="716.125" y2="-15.349" gradientTransform="matrix(1.00023 0 0 .9681 -744.093 14.891)" gradientUnits="userSpaceOnUse"/><linearGradient xlink:href="#b" id="i" x1="1451.826" x2="743.846" y1="716.125" y2="-15.349" gradientTransform="matrix(1.00023 0 0 .9681 -743.986 14.891)" gradientUnits="userSpaceOnUse"/><linearGradient xlink:href="#b" id="j" x1="1451.255" x2="743.276" y1="721.931" y2="-9.544" gradientTransform="matrix(1.00023 0 0 .9681 -743.415 9.271)" gradientUnits="userSpaceOnUse"/><linearGradient xlink:href="#c" id="k" x1="709.012" x2=".872" y1="708.168" y2=".032" gradientTransform="translate(-.843)" gradientUnits="userSpaceOnUse"/><linearGradient xlink:href="#b" id="m" x1="1362.177" x2="654.023" y1="672.175" y2="-35.977" gradientTransform="translate(-656.735 36)" gradientUnits="userSpaceOnUse"/><linearGradient xlink:href="#c" id="l" x1="1361.591" x2="653.439" y1="671.367" y2="-36.785" gradientTransform="translate(-658.39 36.81)" gradientUnits="userSpaceOnUse"/><radialGradient xlink:href="#a" id="d" cx="384.286" cy="505.219" r="323.357" fx="384.286" fy="505.219" gradientUnits="userSpaceOnUse"/></defs><g style="display:inline"><path d="M707.143 505.22a322.857 322.857 0 1 1-645.714 0 322.857 322.857 0 1 1 645.714 0" style="fill:url(#d);fill-opacity:1;fill-rule:evenodd;stroke:none;stroke-width:1px;stroke-linecap:butt;stroke-linejoin:miter;stroke-opacity:1" transform="translate(-31.614 -152.548)"/><path d="M711.429 507.362a325 325 0 1 1-650 0 325 325 0 1 1 650 0z" style="fill:none;stroke:url(#e);stroke-width:50;stroke-miterlimit:4;stroke-dasharray:none;stroke-opacity:1" transform="translate(-33.757 -154.69)"/><path d="M711.429 507.362a325 325 0 1 1-650 0 325 325 0 1 1 650 0z" style="fill:none;stroke:url(#f);stroke-width:9.3096447;stroke-miterlimit:4;stroke-dasharray:none;stroke-opacity:1" transform="translate(-60.984 -190.885)scale(1.07415)"/><path d="M711.429 507.362a325 325 0 1 1-650 0 325 325 0 1 1 650 0z" style="fill:none;stroke:url(#g);stroke-width:10.87781811;stroke-miterlimit:4;stroke-dasharray:none;stroke-opacity:1" transform="translate(-1.859 -113.033)scale(.9193)"/></g><g style="display:inline"><path d="M352.672-.004c6.91 0 32.911 122.116 32.911 252.792v433.12s-.496 22.28-32.911 22.28c-33.408 0-32.911-22.28-32.911-22.28v-433.12c0-130.691 27.142-252.792 32.911-252.792" style="fill:url(#h);fill-opacity:1;fill-rule:evenodd;stroke:none;stroke-width:1.04449499px;stroke-linecap:butt;stroke-linejoin:miter;stroke-opacity:1;display:inline"/><path d="M329.728 265.75c-.047 71.791.459 143.582.14 215.375.12 69.114-.99 132.617.437 201.625 0 15.13 21.285 15.188 22.537 15.188 1.14 0 22.537-.007 22.537-15.188.584-103.373.03-206.719.395-310.094-.218-58.413.327-116.866-1.762-175.247-2.87-55.41-9.17-110.815-21.17-164.971-18.004 76.486-21.574 155.073-23.114 233.312" style="fill:url(#i);fill-opacity:1;fill-rule:evenodd;stroke:none;stroke-width:1.04449499px;stroke-linecap:butt;stroke-linejoin:miter;stroke-opacity:1;display:inline"/><path d="M435.628 555.362s21.236.236 21.236-19.586c0-19.432-21.236-19.654-21.236-19.654l-163.174.045s-21.118.029-21.118 19.61c0 19.62 21.368 19.608 21.368 19.608z" style="fill:url(#j);fill-opacity:1;fill-rule:evenodd;stroke:url(#k);stroke-width:10;stroke-linecap:butt;stroke-linejoin:miter;stroke-miterlimit:4;stroke-dasharray:none;stroke-opacity:1;display:inline"/><path d="M172.484 300.636 322.36 484.011v-53.625l100 82.5-2.125-44.25 116.625 71.875-161.283-190.065v43.664L274.99 319.863l1.945 42.78zm56.665-200.433L332.387 226.6v-36.593l69.296 56.568-1.59-30.759 80.61 50.028-110.84-130.815v29.522l-69.826-51.265 1.767 29.875zm-33 86.248 129.5 160V299.7l88 71.75-1.75-38 100 61.75-138.75-164.75v38.25l-87.25-65.5 1.25 37.5z" style="fill:url(#l);fill-opacity:1;fill-rule:evenodd;stroke:none;stroke-width:1px;stroke-linecap:butt;stroke-linejoin:miter;stroke-opacity:1;display:inline"/><path d="M313.828 138.813c.462 7.488.871 14.979 1.313 22.468-13.438-7.953-26.905-15.838-40.344-23.781l49.843 61v-29.594c22.706 18.545 45.418 37.083 68.125 55.625-.457-9.104-.926-18.208-1.375-27.312 14.316 8.929 28.644 17.837 42.97 26.75l-52.25-61.75v22.031c-22.94-16.612-45.69-33.485-68.563-50.187zm.781 317.062v-46.75a80011 80011 0 0 0 98.938 81.719c-.644-13.553-1.326-27.105-2-40.656 26.43 16.286 52.853 32.584 79.281 48.875l-103-121.438v36.344c-33.168-24.656-66.357-49.027-99.625-73.531.605 13.446 1.182 26.895 1.75 40.343-23.803-14.183-47.624-28.335-71.437-42.5zM299.89 255c1.155 7.71-8.564-2.974-12.48-3.851q-22.95-13.68-45.895-27.368l76.375 94.375v-39.562c28.986 23.661 57.98 47.311 86.97 70.969-.496-11.524-1.085-23.043-1.657-34.563 21.075 12.997 42.136 26.016 63.219 39l-81.032-96.219v30.906c-28.821-21.718-57.685-43.375-86.562-65.03z" style="fill:url(#m);fill-opacity:1;fill-rule:evenodd;stroke:none;stroke-width:1px;stroke-linecap:butt;stroke-linejoin:miter;stroke-opacity:1;display:inline"/></g></svg>