<svg xmlns="http://www.w3.org/2000/svg" xml:space="preserve" viewBox="0 0 1733 851"><path d="M316.5 0H1416v234h317v617H0V234h316.5zM342 25.5v238.2H29.8v557.1h1673V263.7h-312.3V25.5z"/><path d="M600 76.5c46.6 0 93.3-.1 139.9 0-1 3.7-2.2 7.4-3.5 11-4.6 0-9.1-.1-13.7 0 3.5 3 7.4 5.5 11.1 8.2q-1.95 6.75-4.5 13.2c4.2-2.1 7.3-5.8 11.6-7.7 4 2 7.2 5.3 10.9 7.7-.6-4.6-2.7-8.7-3.9-13.1 3.7-2.9 7.6-5.5 11.4-8.3-4.7-.2-9.4-.1-14.1-.1-1.3-3.6-2.5-7.3-3.6-11 83.1-.1 166.2-.1 249.2 0-1 3.7-2.2 7.4-3.5 11-4.6 0-9.3-.1-13.9.1 3.7 2.8 7.6 5.5 11.3 8.2-1.3 4.5-2.8 8.8-4.5 13.2 4.2-2 7.4-6 11.7-7.7 4 2.1 7.2 5.3 11 7.7-1-4.5-2.8-8.8-4.1-13.1 3.7-2.9 7.6-5.5 11.4-8.3-4.7-.2-9.3-.1-14 0-1.4-3.6-2.5-7.2-3.5-11 46.2-.1 92.5 0 138.7 0v42.4c-10.8 0-21.7-.1-32.5.1-2.3 0-4.7.4-6.7-.8 4-2.1 7.4-5.1 11.1-7.7 3.8 2.7 7.4 5.6 11.3 8-1.3-4.3-2.8-8.6-4.3-12.9 3.7-2.9 7.6-5.6 11.4-8.3-4.6-.1-9.3 0-13.9 0-1.9-4.1-2.1-8.9-4.8-12.6-1.3 4.2-2.6 8.4-4.1 12.6-4.6.1-9.3 0-13.9.1 3.8 2.8 7.7 5.4 11.4 8.3-1.6 4.6-3.2 9.1-4.8 13.7-12.2-.8-24.5-.1-36.8-.3h-158c-6.6-.2-13.2.4-19.7-.2-1.5-4.5-3-8.9-4.2-13.5 3.8-2.6 7.5-5.2 11.1-8-4.6-.1-9.1 0-13.6 0-1.9-4.3-3-9-4.6-13.4-1.5 4.5-2.8 9-4.5 13.4q-6.9-.15-13.8 0c3.6 3 8.1 4.9 11.1 8.5-1.1 4.5-2.9 8.7-4.1 13.2-78 0-156-.1-234 .1-.8-.2-1.5-.5-2.2-.8 3.9-2.2 7.4-5.1 11-7.7 3.8 2.7 7.4 5.6 11.4 8-1.4-4.3-2.9-8.6-4.4-12.8 3.6-2.9 7.6-5.5 11.3-8.3-4.6-.2-9.2-.1-13.7-.1-1.3-3.3-2.3-6.8-3.3-10.2-.2-1-.8-1.7-1.6-2.3-1.2 4.2-2.4 8.5-4.2 12.6-4.5-.1-9.1-.1-13.6 0 3.6 2.7 7.3 5.3 11 7.9-.8 4.9-3 9.4-4.3 14.2-5.9-.7-11.8-.2-17.7-.4-.2-14.5-.2-28.6-.2-42.8"/><path d="M854.8 118.8c3.6-3 7.5-5.6 11.2-8.4 3.2 3 7.5 4.7 10.1 8.2-7.1.7-14.2.3-21.3.2M555.6 175c17.6-1.9 35.8-.4 52.5 5.7 29.2 10.3 53.1 34 63.7 63 7.6 20.8 8.4 43.6 4.3 65.3-3.7 20-12.9 39.3-27.1 54-19.9 21-48.7 31.4-77.1 33.4-7 0-14 .1-21 0-31.2-2.9-61.7-18.6-80-44.4-12.9-17.9-19.4-40-19.3-62 0-4.7-.1-9.4.2-14 1.7-27.8 14.7-55 35.9-73.2 18.9-16.4 43.3-25.4 67.9-27.8m0 16.8c-16.2 2.6-30.8 12.2-40.6 25.2-13.6 17.6-19.3 40-20.4 61.9-.4 14.9 1.4 29.8 5.5 44.1 5.4 18.2 15.8 35.4 31.4 46.4 12.4 9 28.3 12.4 43.4 10.6 15-2 28.8-10.1 38.5-21.6 13.1-15.6 19.5-35.8 21.6-55.7 1.8-20.6.7-41.8-6.6-61.3-6.2-17.8-18.2-34.2-35.1-43.2-11.4-6.1-24.8-8.2-37.7-6.4M770.9 179.6c10-.1 20-.3 30-.1 13.4.9 27.5 4.7 36.9 14.8 10.9 11.6 15.2 28.1 14.6 43.7-.4 9.6-2.2 19.3-6.8 27.9-13.2 25-41.8 40.4-69.8 38.4-.4-.1-1.1-.3-1.5-.4-.4-4-.2-8.1-.1-12.1 10.6-1.4 21.6-5.6 28.4-14.3 7.7-9 9.3-21.2 9.7-32.6.3-12-1-24.9-8.2-35-5.7-8.3-15.5-12.8-25.1-14.3-7-.9-14.2-.6-21.2-.1 0 52.5-.1 104.9 0 157.4.8 7.3.3 15.8 5.6 21.7 4.7 5 12.1 4.7 18.4 4.7v12.1c-19.5-1.8-39.1-2.1-58.7-1.6-9.5.8-19.1.5-28.6 1.7-1.1-3.9-.6-8-.6-12 6.5-.1 14.2.4 19.1-4.7 5.4-6.2 4.8-15 5.6-22.7.1-42.7 0-85.4 0-128.1.2-6-.6-12-1.2-18-.9-4.9-2.9-10.3-7.7-12.6-4.9-2.6-10.5-1.9-15.8-2.1-.1-3.9-.1-7.8 0-11.8 5.8-.3 11.5 1.1 17.3 1 19.8.2 39.8.6 59.7-.9M1262.9 180.5c5.8 0 11.6-1.2 17.4-1.1v11.9c-5.8 0-12.5-.3-17.1 4-5.1 4.8-5.4 12.2-5.7 18.7-.4 15-1 30-.9 45.1-.9 44.8-1.4 89.7-1.3 134.5-5.4.1-10.8.2-16.2-.1-10.5-13.6-20.9-27.4-32.2-40.3-25.5-30.1-51.5-59.8-77.2-89.8-8.5-9.8-16.9-19.8-24.9-30.1-4.3-5.3-7.9-11.1-12.6-16.1.8 19 2.1 37.9 2.2 56.9.2 12 0 24 .6 36 .3 17 .1 34.1 1.5 51.1.6 5.1 1.8 10.9 6.1 14.2 4.7 3.7 11 3.3 16.6 4.2-.5 3.9.9 8.3-1 11.8-14.1-1.4-28.2-1.1-42.3-1-8.8.3-17.7-.2-26.5 1.1-.1-4-.1-7.9 0-11.9 5.8-.6 12.2-.4 17.3-3.7 4.1-3.2 5.7-8.6 6.3-13.6 2-28.4 1-56.8 1.3-85.2 0-19.7 0-39.3-.1-59-.6-8-.8-17.2-7.2-23.1-4.9-3.8-11.6-3.4-17.5-3.7-.2-3.9-.2-7.9.1-11.8 3.8-.1 7.5.4 11.3.8 16.3.7 32.7.5 48.9-.9 36.7 44.8 75 88.1 112.2 132.5 5.4 6.4 10.2 13.3 15.6 19.7.2-10.9-.2-21.8-.9-32.6-.3-26 0-52-.2-78.1-.1-8.2-.9-17.3-6.6-23.8-4.6-5.1-12-6-18.5-5.9q-.15-6 0-12c4.5 0 9 .7 13.5 1 12.7.6 25.3.5 38 .3M863.7 179.4c16.7 1.7 33.6 1.2 50.4 1.4 24.7-.1 49.4-.3 74-.4 9.5-.8 19-.6 28.5-.9.6 17.1 2.3 34.1 4.3 51.1-4.5 1-9.2 1.3-13.8 1.2-1.4-9.1-3.1-18.6-8.8-26.1-4-5.5-10.9-8-17.3-9.3-13.9-2.5-28-2-42-1.9-3.5.1-7.8.2-10 3.5-1.6 3.4-1.5 7.3-1.6 11-.2 21.5.1 43-.2 64.5 12.6-.2 25.3.1 37.9-.3 7.1-.7 14.9-.7 20.8-5.3 5.5-5.2 4.9-13.3 5.7-20.2h12.9c-1.8 18.1-.9 36.3-.9 54.4-.3 4.4.9 8.7.7 13.1-4.2.3-8.4.1-12.6.2-.9-6.9-.6-14.8-5.9-20.1-5.8-5.4-14.2-5.8-21.6-6.6-12.5-.4-25.1-.1-37.7-.2 1.4 6.4.7 13 .9 19.5.1 15.3-.2 30.6.2 46 .6 6.6 2.1 14.8 8.7 18.1 7.7 3.9 16.5 2.1 24.8 2.9 5 .6 10-.5 15.1-.3 11.3.3 22.8-3 31.9-9.7 9.7-7.9 13.7-20.2 17.9-31.5 3.9 1.3 7.8 2.5 11.8 3.4.4 4.2-1.4 8.1-2.3 12.1-3.7 14-6.7 28.3-9.8 42.5-15.1-1.1-30.3-.8-45.4-1.6q-31.5-.3-63 0c-17.6.8-35.2.6-52.8 1.1v-11.4c4.8 0 9.9.1 14.4-2 3.5-1.6 6-4.9 7.1-8.6 2.2-7.1 2-14.6 2-21.9 0-43.3.1-86.7-.1-130-.2-7.3-.3-15.5-5.4-21.2-4.9-5-12.3-4.5-18.7-4.4-.4-4.2-.3-8.2-.1-12.1M586.6 469c16.1-1.3 32.4-.8 48.2 2.8 32.1 7 61.2 26.3 80.2 53 17.7 24.5 26.3 55.1 25.4 85.3-.8 29.9-8.9 60.2-26.8 84.5-18.5 25.6-47.1 42.8-77.6 50.2-9.9 2.6-20 3.9-30.2 4.8-9.7.2-19.4.1-29.1 0-32.6-3.4-64.1-17.8-87.4-41.1-10.9-11.3-19.9-24.5-26.1-39-8.3-19.3-11.8-40.6-11.3-61.5-.1-33.3 11.7-66.8 34-91.8 12.3-13.8 27.6-24.7 44.3-32.6 17.8-8.4 37.1-12.8 56.4-14.6m1 21c-17.4 1.9-33.6 10.3-46.1 22.4-12.6 12.2-21.2 28-26.8 44.5-5.1 15.5-7.8 31.8-7.5 48.1-.8 27.2 4.8 55 18.2 78.8C533.5 698 545 710.5 559 719c17.8 10.2 39.6 13.3 59.5 7.9 14-3.5 26.5-11.6 36.4-22 14.6-15.7 23.3-36.1 27.7-57 3-15.1 4.3-30.5 3.8-46-.5-3.7-1.1-7.3-1.1-11-1.9-19.9-7.3-39.6-17.4-57-6.9-11.7-15.7-22.4-26.9-30.1-15.4-10.5-34.7-16-53.4-13.8M1213 476c6.7-2.9 13.4-6 20.2-8.7 5.5 15.8 10.1 31.9 15.4 47.8 14.1 43 29.1 85.8 43.7 128.7 7.1 20.5 13.4 41.4 22.7 61 3.5 7.3 7.8 14.6 14.5 19.5 4.4 3.1 9.8 3.4 15 4.3v14.2c-4.3-.3-9.1 1.2-13.1-.9-25.5-.4-51-.8-76.5 0-7.1 1-14.4.8-21.5 1v-14.5c7.4-.4 15.9.2 22.1-4.7 5.1-4.3 4.4-11.8 3.7-17.8-3.7-21.6-11.8-42.2-18-63.2-25.4.1-50.8-.2-76.2.1-3.3 10.6-7.7 20.8-11.5 31.2-3.8 10.6-8.6 20.9-10.8 32-.7 5.7-1.2 12.5 3.5 16.8 6.5 6.2 16.2 4.8 24.4 5.6v14.4c-8.6.2-17-1.4-25.6-1.3-15.4-.2-30.7-.3-46.1 0-7.8-.1-15.5 1.7-23.3 1.2-.3-4.7-.3-9.5-.3-14.2 4.8-.8 9.9-.7 14.4-2.8 8.5-3.4 13-12.1 17.5-19.5 10.6-20.3 19-41.7 27.9-62.7 21.9-53.6 45.4-106.5 64.6-161.1 4-3 9-4.2 13.3-6.4m-6.2 51.7c-1.1 2.7-2 5.4-2.8 8.2-6.1 20.8-13.6 41.1-21.6 61.2-2.9 8.2-6.9 16-9.4 24.3 5.3-.2 10.7-.1 16-.3 15.3-1.2 30.6.2 45.9.3-3-8.1-5.9-16.2-8.3-24.4-5.9-19.8-12.8-39.3-16.8-59.6-.7-3.2-1.2-6.7-3-9.7M1499.5 476.9c7.5-3.2 14.8-6.9 22.6-9.5 19.2 62 40.8 123.2 61.8 184.6 6.5 18.9 12.5 38 21.4 55.9 3.7 7 8.3 14.4 15.8 17.9 3.6 1.8 7.7 1.8 11.6 2.6-.1 4.8 0 9.6 0 14.4-6.2-.1-12.5-.1-18.7-1-15.7-.5-31.4-.5-47.1-.4-9.3.2-18.6-.3-27.8 1-5.6.4-11.3.3-16.9.4v-14.5c7.7-.4 16.6.1 22.8-5.3 4-4.5 3.8-11.1 3-16.6-3.6-21.9-12-42.5-18-63.8-25.4-.1-50.8-.2-76.2 0-4.4 12.5-9.3 24.9-14 37.3-3.1 8.5-6.9 16.9-8.5 26-.3 5.2-1.2 11.1 2.2 15.5 2.3 3.2 6.2 4.7 9.8 5.8 5.3 1.1 10.8-.3 16 1.3-.1 4.8-.1 9.5 0 14.3-7.2 0-14.4-.2-21.5-1.1-19-.4-38.1-.4-57.1.1l-.8.6c-5.2.2-10.4.4-15.6.5-.2-4.8-.3-9.5-.2-14.3 7.4-.7 15.5-1.7 21-7.2 8.1-8.6 13.1-19.6 18.1-30.2 8.4-18.5 16.2-37.2 23.9-56 15.3-37.2 31.2-74.2 45.9-111.8 5.1-13.5 10.6-26.8 14.6-40.6 3.6-2.9 8-3.9 11.9-5.9m-4.6 51.2c-8.9 31.9-21.2 62.7-33.6 93.4 5.6-.2 11.2 0 16.8-.4 15-1.2 30.1.3 45.2.3-2.5-8.3-5.7-16.4-8.1-24.7-6.5-21.9-14.3-43.6-18-66.3 0-1.4-1.4-1.7-2.3-2.3M392 476.5c13 .4 26-.8 39-2 .5 5 .2 10 .4 15-8.2 1.1-17.1.1-24.6 4.4-5.6 2.9-8.3 9.1-9.1 15-.5 4.7-.4 9.4-.4 14.1.3 15.7-.3 31.4 1 47 .2 12.7.1 25.4.5 38.1l.7.8c.1 11 0 22 .4 32.9 1.3 10.9.4 22 1.5 32.9.3 4 0 8 .6 11.9 1.1 6.1 0 12.3 1.5 18.3 1.2 6.4 2.1 13.9 7.9 18 6.2 4.4 14.2 4.2 21.5 5.1v14.7c-9.2.3-18.4-1.4-27.6-1.3-20.7-.3-41.3-.3-62 .2-6.9 1-13.8.9-20.7 1 0-5-.1-10.1.2-15.1 7.5.1 15.8-.3 21.9-5.2 6.5-6.7 6.8-16.7 6.9-25.5.2-39.7-.1-79.3.2-119 .1-5.3 1.3-10.6 1-16-.1-6.9 1.6-13.7 1.2-20.6h-1.9c-13.7 38.9-31.6 76.1-49.3 113.4-8 17-16.4 33.8-23.6 51.2-5.5 12.5-10.5 25.2-16.7 37.3-3.4-.1-6.7.2-10.1-.2-1.3-.3-1.8-1.8-2.4-2.9-18.2-39.6-37-78.9-55.4-118.4-12.4-26-24.3-52.4-34.1-79.5-.5 0-1.6-.1-2.1-.1.1 10.3 1.5 20.5 1.1 30.8.4 13.1-.6 26.2-.9 39.3-1.2 9.9-.1 19.9-1.6 29.8-.4 11.4-.2 22.9-.4 34.4-.8 9.1-1.4 18.4-.1 27.5.4 6.4 2.1 13.3 6.8 18 6.2 5.1 14.6 6.1 22.4 5.8.3 5 .2 10 .2 15.1-7.9.3-15.7-1.4-23.6-1.2-12.8-.3-25.6-.4-38.4.1-8.3 1.1-16.6.8-25 .8.4-4.9-1-10.1 1-14.7 6.6.3 14.1-.1 19-5.1 5.4-5.9 7-14 8.3-21.6.8-3.9.8-8 .4-11.9l.9 5.1c.4-9.1 1.1-18.1 2-27.2.2-4.4 0-8.8.6-13.1 1-6.6.4-13.3.9-20 .9-7.6.7-15.3 1.5-22.9-.3-9 1.4-17.9 1.2-27-.2-5.4 1-10.7 1-16-.1-17.7 2.7-35.4 1.6-53.1-.6-8.3-3.8-17.1-11.2-21.6-5.7-3.6-12.7-3.2-19.2-3.1-.2-4.9-.1-9.9-.1-14.8 14.5.2 29 1.7 43.5 1 9.8-.7 19.7-.7 29.4-1.9 15.6 37.3 32.4 74 49.9 110.4 13.4 28.9 28 57.3 39.5 87 .3-.2.9-.5 1.3-.7 7.5-18.6 15.2-37.2 23.9-55.3 18.6-40.6 38.1-80.9 55.6-122 2.8-6 4.7-12.4 7.8-18.3 11.2-.6 22.7 1 34.3.9M761.3 489.6c-.1-5.1-.1-10.1 0-15.1 26.2 2 52.5 2.5 78.7 1.7 9.6-1 19.3-.1 28.8-1.3 1.5-.3 3 .2 4.4.7-.2 4.7-.1 9.3-.1 14-8.3 0-18.2-.4-24.5 6-6.9 8.1-5.9 19.5-7 29.4-.3 23.8.1 47.6-.3 71.4 31.5-.4 63.1 0 94.6-.2 12.2.1 24.4-.2 36.6.2-.3-17.8-.2-35.6-.1-53.4-.2-8.3.3-16.7-.9-25-.2-8.1-1.2-17.2-7.3-23.2-6.4-5.7-15.5-5-23.5-5.2v-13.9c8.1-.2 16.2-.1 24.2.7 19.3.8 38.7.2 58 0 9.9-.8 19.8-.5 29.7-.8.1 4.7.1 9.5 0 14.2-6.5-.1-13.3-.3-19.2 2.6-4.3 2.1-7.2 6.2-8.5 10.8-3.5 10.6-2.4 21.9-2.6 32.9v141.1c.2 12.3-.9 25 2.3 37 1.3 5 4.6 9.8 9.5 11.8 4 2.1 8.5 1.6 12.8 2.3 1.8-.2 3.6-.4 5.5-.6.4 5.1.2 10.2.2 15.2-7.2-.2-14.5-.3-21.7-.6-8.3-1.1-16.7-.8-25-.9-13.8 0-27.7 0-41.5.4-7.7 1.1-15.4.5-23.1.9-.8-4.8.2-9.6-.1-14.5 6.9-1.2 14.6.8 20.7-3.5 7.6-4.9 9.2-14.6 9.6-22.9 1.4-9.9.7-19.9.9-29.9 0-18.5 0-36.9.1-55.4-43.7.2-87.3.3-131 0 .2 26.8 0 53.6.2 80.4 1 8.4 1.2 17.8 6.7 24.7 6.2 7.1 16.4 6.1 24.9 6.9-.1 4.7-.1 9.4 0 14.2-7.5 0-14.9 0-22.3-1-23-.5-46-.6-69 0-6.8 1-13.7 1.1-20.6 1.1v-14.5c7.9-.3 17 0 23.2-5.8 5.5-6.4 6.5-15.4 7-23.5.2-57.3.1-114.6.1-172-.1-10.3.1-21.7-6.1-30.5-5.8-7.1-15.9-7-24.3-6.9"/></svg>