<?xml version="1.0" encoding="utf-8"?>
<!-- Generator: Adobe Illustrator 28.2.0, SVG Export Plug-In . SVG Version: 6.00 Build 0)  -->
<svg version="1.1" id="Layer_1" xmlns="http://www.w3.org/2000/svg" xmlns:xlink="http://www.w3.org/1999/xlink" x="0px" y="0px"
	 viewBox="0 0 1733 851" style="enable-background:new 0 0 1733 851;" xml:space="preserve">
<g>
	<path d="M316.5,0H1416c0,78,0,156,0,234c105.7,0,211.3,0,317,0v617H0V234c105.5,0,211,0,316.5,0C316.5,156,316.5,78,316.5,0
		 M342,25.5c0,79.4,0,158.8,0,238.2c-104.1,0-208.2,0-312.2,0c0,185.7,0,371.4,0,557.1c557.7,0,1115.3,0,1673,0
		c0-185.7,0-371.4,0-557.1c-104.1,0-208.2,0-312.3,0c0-79.4,0-158.8,0-238.2C1041,25.5,691.5,25.5,342,25.5z"/>
	<path d="M600,76.5c46.6,0,93.3-0.1,139.9,0c-1,3.7-2.2,7.4-3.5,11c-4.6,0-9.1-0.1-13.7,0c3.5,3,7.4,5.5,11.1,8.2
		c-1.3,4.5-2.8,8.9-4.5,13.2c4.2-2.1,7.3-5.8,11.6-7.7c4,2,7.2,5.3,10.9,7.7c-0.6-4.6-2.7-8.7-3.9-13.1c3.7-2.9,7.6-5.5,11.4-8.3
		c-4.7-0.2-9.4-0.1-14.1-0.1c-1.3-3.6-2.5-7.3-3.6-11c83.1-0.1,166.2-0.1,249.2,0c-1,3.7-2.2,7.4-3.5,11c-4.6,0-9.3-0.1-13.9,0.1
		c3.7,2.8,7.6,5.5,11.3,8.2c-1.3,4.5-2.8,8.8-4.5,13.2c4.2-2,7.4-6,11.7-7.7c4,2.1,7.2,5.3,11,7.7c-1-4.5-2.8-8.8-4.1-13.1
		c3.7-2.9,7.6-5.5,11.4-8.3c-4.7-0.2-9.3-0.1-14,0c-1.4-3.6-2.5-7.2-3.5-11c46.2-0.1,92.5,0,138.7,0c0,14.1,0,28.3,0,42.4
		c-10.8,0-21.7-0.1-32.5,0.1c-2.3,0-4.7,0.4-6.7-0.8c4-2.1,7.4-5.1,11.1-7.7c3.8,2.7,7.4,5.6,11.3,8c-1.3-4.3-2.8-8.6-4.3-12.9
		c3.7-2.9,7.6-5.6,11.4-8.3c-4.6-0.1-9.3,0-13.9,0c-1.9-4.1-2.1-8.9-4.8-12.6c-1.3,4.2-2.6,8.4-4.1,12.6c-4.6,0.1-9.3,0-13.9,0.1
		c3.8,2.8,7.7,5.4,11.4,8.3c-1.6,4.6-3.2,9.1-4.8,13.7c-12.2-0.8-24.5-0.1-36.8-0.3c-52.7,0-105.3,0-158,0
		c-6.6-0.2-13.2,0.4-19.7-0.2c-1.5-4.5-3-8.9-4.2-13.5c3.8-2.6,7.5-5.2,11.1-8c-4.6-0.1-9.1,0-13.6,0c-1.9-4.3-3-9-4.6-13.4
		c-1.5,4.5-2.8,9-4.5,13.4c-4.6-0.1-9.2-0.1-13.8,0c3.6,3,8.1,4.9,11.1,8.5c-1.1,4.5-2.9,8.7-4.1,13.2c-78,0-156-0.1-234,0.1
		c-0.8-0.2-1.5-0.5-2.2-0.8c3.9-2.2,7.4-5.1,11-7.7c3.8,2.7,7.4,5.6,11.4,8c-1.4-4.3-2.9-8.6-4.4-12.8c3.6-2.9,7.6-5.5,11.3-8.3
		c-4.6-0.2-9.2-0.1-13.7-0.1c-1.3-3.3-2.3-6.8-3.3-10.2c-0.2-1-0.8-1.7-1.6-2.3c-1.2,4.2-2.4,8.5-4.2,12.6c-4.5-0.1-9.1-0.1-13.6,0
		c3.6,2.7,7.3,5.3,11,7.9c-0.8,4.9-3,9.4-4.3,14.2c-5.9-0.7-11.8-0.2-17.7-0.4C600,104.8,600,90.7,600,76.5z"/>
	<path d="M854.8,118.8c3.6-3,7.5-5.6,11.2-8.4c3.2,3,7.5,4.7,10.1,8.2C869,119.3,861.9,118.9,854.8,118.8z"/>
	<path d="M555.6,175c17.6-1.9,35.8-0.4,52.5,5.7c29.2,10.3,53.1,34,63.7,63c7.6,20.8,8.4,43.6,4.3,65.3c-3.7,20-12.9,39.3-27.1,54
		c-19.9,21-48.7,31.4-77.1,33.4c-7,0-14,0.1-21,0c-31.2-2.9-61.7-18.6-80-44.4c-12.9-17.9-19.4-40-19.3-62c0-4.7-0.1-9.4,0.2-14
		c1.7-27.8,14.7-55,35.9-73.2C506.6,186.4,531,177.4,555.6,175 M555.6,191.8c-16.2,2.6-30.8,12.2-40.6,25.2
		c-13.6,17.6-19.3,40-20.4,61.9c-0.4,14.9,1.4,29.8,5.5,44.1c5.4,18.2,15.8,35.4,31.4,46.4c12.4,9,28.3,12.4,43.4,10.6
		c15-2,28.8-10.1,38.5-21.6c13.1-15.6,19.5-35.8,21.6-55.7c1.8-20.6,0.7-41.8-6.6-61.3c-6.2-17.8-18.2-34.2-35.1-43.2
		C581.9,192.1,568.5,190,555.6,191.8z"/>
	<path d="M770.9,179.6c10-0.1,20-0.3,30-0.1c13.4,0.9,27.5,4.7,36.9,14.8c10.9,11.6,15.2,28.1,14.6,43.7c-0.4,9.6-2.2,19.3-6.8,27.9
		c-13.2,25-41.8,40.4-69.8,38.4c-0.4-0.1-1.1-0.3-1.5-0.4c-0.4-4-0.2-8.1-0.1-12.1c10.6-1.4,21.6-5.6,28.4-14.3
		c7.7-9,9.3-21.2,9.7-32.6c0.3-12-1-24.9-8.2-35c-5.7-8.3-15.5-12.8-25.1-14.3c-7-0.9-14.2-0.6-21.2-0.1c0,52.5-0.1,104.9,0,157.4
		c0.8,7.3,0.3,15.8,5.6,21.7c4.7,5,12.1,4.7,18.4,4.7c0,4,0,8,0,12.1c-19.5-1.8-39.1-2.1-58.7-1.6c-9.5,0.8-19.1,0.5-28.6,1.7
		c-1.1-3.9-0.6-8-0.6-12c6.5-0.1,14.2,0.4,19.1-4.7c5.4-6.2,4.8-15,5.6-22.7c0.1-42.7,0-85.4,0-128.1c0.2-6-0.6-12-1.2-18
		c-0.9-4.9-2.9-10.3-7.7-12.6c-4.9-2.6-10.5-1.9-15.8-2.1c-0.1-3.9-0.1-7.8,0-11.8c5.8-0.3,11.5,1.1,17.3,1
		C731,180.7,751,181.1,770.9,179.6z"/>
	<path d="M1262.9,180.5c5.8,0,11.6-1.2,17.4-1.1c0,4,0,7.9,0,11.9c-5.8,0-12.5-0.3-17.1,4c-5.1,4.8-5.4,12.2-5.7,18.7
		c-0.4,15-1,30-0.9,45.1c-0.9,44.8-1.4,89.7-1.3,134.5c-5.4,0.1-10.8,0.2-16.2-0.1c-10.5-13.6-20.9-27.4-32.2-40.3
		c-25.5-30.1-51.5-59.8-77.2-89.8c-8.5-9.8-16.9-19.8-24.9-30.1c-4.3-5.3-7.9-11.1-12.6-16.1c0.8,19,2.1,37.9,2.2,56.9
		c0.2,12,0,24,0.6,36c0.3,17,0.1,34.1,1.5,51.1c0.6,5.1,1.8,10.9,6.1,14.2c4.7,3.7,11,3.3,16.6,4.2c-0.5,3.9,0.9,8.3-1,11.8
		c-14.1-1.4-28.2-1.1-42.3-1c-8.8,0.3-17.7-0.2-26.5,1.1c-0.1-4-0.1-7.9,0-11.9c5.8-0.6,12.2-0.4,17.3-3.7c4.1-3.2,5.7-8.6,6.3-13.6
		c2-28.4,1-56.8,1.3-85.2c0-19.7,0-39.3-0.1-59c-0.6-8-0.8-17.2-7.2-23.1c-4.9-3.8-11.6-3.4-17.5-3.7c-0.2-3.9-0.2-7.9,0.1-11.8
		c3.8-0.1,7.5,0.4,11.3,0.8c16.3,0.7,32.7,0.5,48.9-0.9c36.7,44.8,75,88.1,112.2,132.5c5.4,6.4,10.2,13.3,15.6,19.7
		c0.2-10.9-0.2-21.8-0.9-32.6c-0.3-26,0-52-0.2-78.1c-0.1-8.2-0.9-17.3-6.6-23.8c-4.6-5.1-12-6-18.5-5.9c-0.1-4-0.1-8,0-12
		c4.5,0,9,0.7,13.5,1C1237.6,180.8,1250.2,180.7,1262.9,180.5z"/>
	<path d="M863.7,179.4c16.7,1.7,33.6,1.2,50.4,1.4c24.7-0.1,49.4-0.3,74-0.4c9.5-0.8,19-0.6,28.5-0.9c0.6,17.1,2.3,34.1,4.3,51.1
		c-4.5,1-9.2,1.3-13.8,1.2c-1.4-9.1-3.1-18.6-8.8-26.1c-4-5.5-10.9-8-17.3-9.3c-13.9-2.5-28-2-42-1.9c-3.5,0.1-7.8,0.2-10,3.5
		c-1.6,3.4-1.5,7.3-1.6,11c-0.2,21.5,0.1,43-0.2,64.5c12.6-0.2,25.3,0.1,37.9-0.3c7.1-0.7,14.9-0.7,20.8-5.3
		c5.5-5.2,4.9-13.3,5.7-20.2c4.3,0,8.6,0,12.9,0c-1.8,18.1-0.9,36.3-0.9,54.4c-0.3,4.4,0.9,8.7,0.7,13.1c-4.2,0.3-8.4,0.1-12.6,0.2
		c-0.9-6.9-0.6-14.8-5.9-20.1c-5.8-5.4-14.2-5.8-21.6-6.6c-12.5-0.4-25.1-0.1-37.7-0.2c1.4,6.4,0.7,13,0.9,19.5
		c0.1,15.3-0.2,30.6,0.2,46c0.6,6.6,2.1,14.8,8.7,18.1c7.7,3.9,16.5,2.1,24.8,2.9c5,0.6,10-0.5,15.1-0.3c11.3,0.3,22.8-3,31.9-9.7
		c9.7-7.9,13.7-20.2,17.9-31.5c3.9,1.3,7.8,2.5,11.8,3.4c0.4,4.2-1.4,8.1-2.3,12.1c-3.7,14-6.7,28.3-9.8,42.5
		c-15.1-1.1-30.3-0.8-45.4-1.6c-21-0.2-42-0.2-63,0c-17.6,0.8-35.2,0.6-52.8,1.1c0-3.8,0-7.6,0-11.4c4.8,0,9.9,0.1,14.4-2
		c3.5-1.6,6-4.9,7.1-8.6c2.2-7.1,2-14.6,2-21.9c0-43.3,0.1-86.7-0.1-130c-0.2-7.3-0.3-15.5-5.4-21.2c-4.9-5-12.3-4.5-18.7-4.4
		C863.4,187.3,863.5,183.3,863.7,179.4z"/>
	<path d="M586.6,469c16.1-1.3,32.4-0.8,48.2,2.8c32.1,7,61.2,26.3,80.2,53c17.7,24.5,26.3,55.1,25.4,85.3
		c-0.8,29.9-8.9,60.2-26.8,84.5c-18.5,25.6-47.1,42.8-77.6,50.2c-9.9,2.6-20,3.9-30.2,4.8c-9.7,0.2-19.4,0.1-29.1,0
		c-32.6-3.4-64.1-17.8-87.4-41.1c-10.9-11.3-19.9-24.5-26.1-39c-8.3-19.3-11.8-40.6-11.3-61.5c-0.1-33.3,11.7-66.8,34-91.8
		c12.3-13.8,27.6-24.7,44.3-32.6C548,475.2,567.3,470.8,586.6,469 M587.6,490c-17.4,1.9-33.6,10.3-46.1,22.4
		c-12.6,12.2-21.2,28-26.8,44.5c-5.1,15.5-7.8,31.8-7.5,48.1c-0.8,27.2,4.8,55,18.2,78.8c8.1,14.2,19.6,26.7,33.6,35.2
		c17.8,10.2,39.6,13.3,59.5,7.9c14-3.5,26.5-11.6,36.4-22c14.6-15.7,23.3-36.1,27.7-57c3-15.1,4.3-30.5,3.8-46
		c-0.5-3.7-1.1-7.3-1.1-11c-1.9-19.9-7.3-39.6-17.4-57c-6.9-11.7-15.7-22.4-26.9-30.1C625.6,493.3,606.3,487.8,587.6,490z"/>
	<path d="M1213,476c6.7-2.9,13.4-6,20.2-8.7c5.5,15.8,10.1,31.9,15.4,47.8c14.1,43,29.1,85.8,43.7,128.7c7.1,20.5,13.4,41.4,22.7,61
		c3.5,7.3,7.8,14.6,14.5,19.5c4.4,3.1,9.8,3.4,15,4.3c0,4.7,0,9.4,0,14.2c-4.3-0.3-9.1,1.2-13.1-0.9c-25.5-0.4-51-0.8-76.5,0
		c-7.1,1-14.4,0.8-21.5,1c0-4.8,0-9.6,0-14.5c7.4-0.4,15.9,0.2,22.1-4.7c5.1-4.3,4.4-11.8,3.7-17.8c-3.7-21.6-11.8-42.2-18-63.2
		c-25.4,0.1-50.8-0.2-76.2,0.1c-3.3,10.6-7.7,20.8-11.5,31.2c-3.8,10.6-8.6,20.9-10.8,32c-0.7,5.7-1.2,12.5,3.5,16.8
		c6.5,6.2,16.2,4.8,24.4,5.6c0,4.8,0,9.6,0,14.4c-8.6,0.2-17-1.4-25.6-1.3c-15.4-0.2-30.7-0.3-46.1,0c-7.8-0.1-15.5,1.7-23.3,1.2
		c-0.3-4.7-0.3-9.5-0.3-14.2c4.8-0.8,9.9-0.7,14.4-2.8c8.5-3.4,13-12.1,17.5-19.5c10.6-20.3,19-41.7,27.9-62.7
		c21.9-53.6,45.4-106.5,64.6-161.1C1203.7,479.4,1208.7,478.2,1213,476 M1206.8,527.7c-1.1,2.7-2,5.4-2.8,8.2
		c-6.1,20.8-13.6,41.1-21.6,61.2c-2.9,8.2-6.9,16-9.4,24.3c5.3-0.2,10.7-0.1,16-0.3c15.3-1.2,30.6,0.2,45.9,0.3
		c-3-8.1-5.9-16.2-8.3-24.4c-5.9-19.8-12.8-39.3-16.8-59.6C1209.1,534.2,1208.6,530.7,1206.8,527.7z"/>
	<path d="M1499.5,476.9c7.5-3.2,14.8-6.9,22.6-9.5c19.2,62,40.8,123.2,61.8,184.6c6.5,18.9,12.5,38,21.4,55.9
		c3.7,7,8.3,14.4,15.8,17.9c3.6,1.8,7.7,1.8,11.6,2.6c-0.1,4.8,0,9.6,0,14.4c-6.2-0.1-12.5-0.1-18.7-1c-15.7-0.5-31.4-0.5-47.1-0.4
		c-9.3,0.2-18.6-0.3-27.8,1c-5.6,0.4-11.3,0.3-16.9,0.4c0-4.8,0-9.6,0-14.5c7.7-0.4,16.6,0.1,22.8-5.3c4-4.5,3.8-11.1,3-16.6
		c-3.6-21.9-12-42.5-18-63.8c-25.4-0.1-50.8-0.2-76.2,0c-4.4,12.5-9.3,24.9-14,37.3c-3.1,8.5-6.9,16.9-8.5,26
		c-0.3,5.2-1.2,11.1,2.2,15.5c2.3,3.2,6.2,4.7,9.8,5.8c5.3,1.1,10.8-0.3,16,1.3c-0.1,4.8-0.1,9.5,0,14.3c-7.2,0-14.4-0.2-21.5-1.1
		c-19-0.4-38.1-0.4-57.1,0.1l-0.8,0.6c-5.2,0.2-10.4,0.4-15.6,0.5c-0.2-4.8-0.3-9.5-0.2-14.3c7.4-0.7,15.5-1.7,21-7.2
		c8.1-8.6,13.1-19.6,18.1-30.2c8.4-18.5,16.2-37.2,23.9-56c15.3-37.2,31.2-74.2,45.9-111.8c5.1-13.5,10.6-26.8,14.6-40.6
		C1491.2,479.9,1495.6,478.9,1499.5,476.9 M1494.9,528.1c-8.9,31.9-21.2,62.7-33.6,93.4c5.6-0.2,11.2,0,16.8-0.4
		c15-1.2,30.1,0.3,45.2,0.3c-2.5-8.3-5.7-16.4-8.1-24.7c-6.5-21.9-14.3-43.6-18-66.3C1497.2,529,1495.8,528.7,1494.9,528.1z"/>
	<path d="M392,476.5c13,0.4,26-0.8,39-2c0.5,5,0.2,10,0.4,15c-8.2,1.1-17.1,0.1-24.6,4.4c-5.6,2.9-8.3,9.1-9.1,15
		c-0.5,4.7-0.4,9.4-0.4,14.1c0.3,15.7-0.3,31.4,1,47c0.2,12.7,0.1,25.4,0.5,38.1l0.7,0.8c0.1,11,0,22,0.4,32.9
		c1.3,10.9,0.4,22,1.5,32.9c0.3,4,0,8,0.6,11.9c1.1,6.1,0,12.3,1.5,18.3c1.2,6.4,2.1,13.9,7.9,18c6.2,4.4,14.2,4.2,21.5,5.1
		c0,4.9,0,9.8,0,14.7c-9.2,0.3-18.4-1.4-27.6-1.3c-20.7-0.3-41.3-0.3-62,0.2c-6.9,1-13.8,0.9-20.7,1c0-5-0.1-10.1,0.2-15.1
		c7.5,0.1,15.8-0.3,21.9-5.2c6.5-6.7,6.8-16.7,6.9-25.5c0.2-39.7-0.1-79.3,0.2-119c0.1-5.3,1.3-10.6,1-16
		c-0.1-6.9,1.6-13.7,1.2-20.6c-0.5,0-1.5,0-1.9,0c-13.7,38.9-31.6,76.1-49.3,113.4c-8,17-16.4,33.8-23.6,51.2
		c-5.5,12.5-10.5,25.2-16.7,37.3c-3.4-0.1-6.7,0.2-10.1-0.2c-1.3-0.3-1.8-1.8-2.4-2.9c-18.2-39.6-37-78.9-55.4-118.4
		c-12.4-26-24.3-52.4-34.1-79.5c-0.5,0-1.6-0.1-2.1-0.1c0.1,10.3,1.5,20.5,1.1,30.8c0.4,13.1-0.6,26.2-0.9,39.3
		c-1.2,9.9-0.1,19.9-1.6,29.8c-0.4,11.4-0.2,22.9-0.4,34.4c-0.8,9.1-1.4,18.4-0.1,27.5c0.4,6.4,2.1,13.3,6.8,18
		c6.2,5.1,14.6,6.1,22.4,5.8c0.3,5,0.2,10,0.2,15.1c-7.9,0.3-15.7-1.4-23.6-1.2c-12.8-0.3-25.6-0.4-38.4,0.1
		c-8.3,1.1-16.6,0.8-25,0.8c0.4-4.9-1-10.1,1-14.7c6.6,0.3,14.1-0.1,19-5.1c5.4-5.9,7-14,8.3-21.6c0.8-3.9,0.8-8,0.4-11.9
		c0.3,1.7,0.6,3.4,0.9,5.1c0.4-9.1,1.1-18.1,2-27.2c0.2-4.4,0-8.8,0.6-13.1c1-6.6,0.4-13.3,0.9-20c0.9-7.6,0.7-15.3,1.5-22.9
		c-0.3-9,1.4-17.9,1.2-27c-0.2-5.4,1-10.7,1-16c-0.1-17.7,2.7-35.4,1.6-53.1c-0.6-8.3-3.8-17.1-11.2-21.6
		c-5.7-3.6-12.7-3.2-19.2-3.1c-0.2-4.9-0.1-9.9-0.1-14.8c14.5,0.2,29,1.7,43.5,1c9.8-0.7,19.7-0.7,29.4-1.9
		c15.6,37.3,32.4,74,49.9,110.4c13.4,28.9,28,57.3,39.5,87c0.3-0.2,0.9-0.5,1.3-0.7c7.5-18.6,15.2-37.2,23.9-55.3
		c18.6-40.6,38.1-80.9,55.6-122c2.8-6,4.7-12.4,7.8-18.3C368.9,475,380.4,476.6,392,476.5z"/>
	<path d="M761.3,489.6c-0.1-5.1-0.1-10.1,0-15.1c26.2,2,52.5,2.5,78.7,1.7c9.6-1,19.3-0.1,28.8-1.3c1.5-0.3,3,0.2,4.4,0.7
		c-0.2,4.7-0.1,9.3-0.1,14c-8.3,0-18.2-0.4-24.5,6c-6.9,8.1-5.9,19.5-7,29.4c-0.3,23.8,0.1,47.6-0.3,71.4c31.5-0.4,63.1,0,94.6-0.2
		c12.2,0.1,24.4-0.2,36.6,0.2c-0.3-17.8-0.2-35.6-0.1-53.4c-0.2-8.3,0.3-16.7-0.9-25c-0.2-8.1-1.2-17.2-7.3-23.2
		c-6.4-5.7-15.5-5-23.5-5.2c0-4.6,0-9.3,0-13.9c8.1-0.2,16.2-0.1,24.2,0.7c19.3,0.8,38.7,0.2,58,0c9.9-0.8,19.8-0.5,29.7-0.8
		c0.1,4.7,0.1,9.5,0,14.2c-6.5-0.1-13.3-0.3-19.2,2.6c-4.3,2.1-7.2,6.2-8.5,10.8c-3.5,10.6-2.4,21.9-2.6,32.9c0,47,0,94,0,141.1
		c0.2,12.3-0.9,25,2.3,37c1.3,5,4.6,9.8,9.5,11.8c4,2.1,8.5,1.6,12.8,2.3c1.8-0.2,3.6-0.4,5.5-0.6c0.4,5.1,0.2,10.2,0.2,15.2
		c-7.2-0.2-14.5-0.3-21.7-0.6c-8.3-1.1-16.7-0.8-25-0.9c-13.8,0-27.7,0-41.5,0.4c-7.7,1.1-15.4,0.5-23.1,0.9
		c-0.8-4.8,0.2-9.6-0.1-14.5c6.9-1.2,14.6,0.8,20.7-3.5c7.6-4.9,9.2-14.6,9.6-22.9c1.4-9.9,0.7-19.9,0.9-29.9
		c0-18.5,0-36.9,0.1-55.4c-43.7,0.2-87.3,0.3-131,0c0.2,26.8,0,53.6,0.2,80.4c1,8.4,1.2,17.8,6.7,24.7c6.2,7.1,16.4,6.1,24.9,6.9
		c-0.1,4.7-0.1,9.4,0,14.2c-7.5,0-14.9,0-22.3-1c-23-0.5-46-0.6-69,0c-6.8,1-13.7,1.1-20.6,1.1c0-4.8,0-9.7,0-14.5
		c7.9-0.3,17,0,23.2-5.8c5.5-6.4,6.5-15.4,7-23.5c0.2-57.3,0.1-114.6,0.1-172c-0.1-10.3,0.1-21.7-6.1-30.5
		C779.8,489.4,769.7,489.5,761.3,489.6z"/>
</g>
</svg>
