<svg xmlns="http://www.w3.org/2000/svg" xmlns:xlink="http://www.w3.org/1999/xlink" width="708.201" height="708.201"><defs><linearGradient id="c"><stop offset="0" style="stop-color:#000;stop-opacity:1"/><stop offset="1" style="stop-color:#a8a8a8;stop-opacity:1"/></linearGradient><linearGradient id="b"><stop offset="0" style="stop-color:#815700;stop-opacity:1"/><stop offset="1" style="stop-color:#f0d2a0;stop-opacity:1"/></linearGradient><linearGradient id="a"><stop offset="0" style="stop-color:#9a7c3b;stop-opacity:1"/><stop offset="1" style="stop-color:#6d4c00;stop-opacity:1"/></linearGradient><linearGradient xlink:href="#b" id="e" x1="719.429" x2="53.429" y1="840.362" y2="174.362" gradientUnits="userSpaceOnUse"/><linearGradient xlink:href="#b" id="h" x1="708.982" x2="28.205" y1="792.362" y2="131.62" gradientUnits="userSpaceOnUse"/><linearGradient xlink:href="#c" id="i" x1="708.982" x2="50.305" y1="792.362" y2="165.601" gradientUnits="userSpaceOnUse"/><linearGradient xlink:href="#c" id="f" x1="719.429" x2="53.429" y1="840.362" y2="174.362" gradientUnits="userSpaceOnUse"/><linearGradient xlink:href="#c" id="g" x1="58.929" x2="713.929" y1="179.862" y2="834.862" gradientUnits="userSpaceOnUse"/><radialGradient xlink:href="#a" id="d" cx="384.286" cy="505.219" r="323.357" fx="384.286" fy="505.219" gradientUnits="userSpaceOnUse"/></defs><path d="M707.143 505.22a322.857 322.857 0 1 1-645.714 0 322.857 322.857 0 1 1 645.714 0" style="fill:url(#d);fill-opacity:1;fill-rule:evenodd;stroke:none;stroke-width:1px;stroke-linecap:butt;stroke-linejoin:miter;stroke-opacity:1" transform="translate(-31.614 -152.548)"/><path d="M711.429 507.362a325 325 0 1 1-650 0 325 325 0 1 1 650 0z" style="fill:none;stroke:url(#e);stroke-width:50;stroke-miterlimit:4;stroke-dasharray:none;stroke-opacity:1" transform="translate(-33.757 -154.69)"/><path d="M711.429 507.362a325 325 0 1 1-650 0 325 325 0 1 1 650 0z" style="fill:none;stroke:url(#f);stroke-width:9.3096447;stroke-miterlimit:4;stroke-dasharray:none;stroke-opacity:1" transform="translate(-60.984 -190.885)scale(1.07415)"/><path d="M711.429 507.362a325 325 0 1 1-650 0 325 325 0 1 1 650 0z" style="fill:none;stroke:url(#g);stroke-width:10.87781811;stroke-miterlimit:4;stroke-dasharray:none;stroke-opacity:1" transform="translate(-1.859 -113.033)scale(.9193)"/><path d="M579.664 784.632 379.15 641.706 182.756 786.39l73.967-234.868-198.291-142.07 246.23-2.232 73.842-232.488 78.211 233.489 243.929-1.615L502.75 553.141z" style="fill:url(#h);fill-opacity:1;stroke:url(#i);stroke-width:10;stroke-miterlimit:4;stroke-dasharray:none;stroke-opacity:1" transform="translate(-26.21 -159.224)"/></svg>