<svg xmlns="http://www.w3.org/2000/svg" xmlns:xlink="http://www.w3.org/1999/xlink" width="708.201" height="708.201"><defs><linearGradient id="c"><stop offset="0" style="stop-color:#000;stop-opacity:1"/><stop offset="1" style="stop-color:#a8a8a8;stop-opacity:1"/></linearGradient><linearGradient id="b"><stop offset="0" style="stop-color:#815700;stop-opacity:1"/><stop offset="1" style="stop-color:#f0d2a0;stop-opacity:1"/></linearGradient><linearGradient id="a"><stop offset="0" style="stop-color:#9a7c3b;stop-opacity:1"/><stop offset="1" style="stop-color:#6d4c00;stop-opacity:1"/></linearGradient><linearGradient xlink:href="#b" id="e" x1="719.429" x2="53.429" y1="840.362" y2="174.362" gradientUnits="userSpaceOnUse"/><linearGradient xlink:href="#c" id="f" x1="719.429" x2="53.429" y1="840.362" y2="174.362" gradientUnits="userSpaceOnUse"/><linearGradient xlink:href="#c" id="g" x1="58.929" x2="713.929" y1="179.862" y2="834.862" gradientUnits="userSpaceOnUse"/><linearGradient xlink:href="#c" id="h" x1="708.179" x2=".019" y1="708.185" y2=".02" gradientUnits="userSpaceOnUse"/><linearGradient xlink:href="#b" id="i" x1="708.179" x2=".018" y1="708.183" y2=".022" gradientUnits="userSpaceOnUse"/><radialGradient xlink:href="#a" id="d" cx="384.286" cy="505.219" r="323.357" fx="384.286" fy="505.219" gradientUnits="userSpaceOnUse"/></defs><g style="display:inline"><path d="M707.143 505.22a322.857 322.857 0 1 1-645.714 0 322.857 322.857 0 1 1 645.714 0" style="fill:url(#d);fill-opacity:1;fill-rule:evenodd;stroke:none;stroke-width:1px;stroke-linecap:butt;stroke-linejoin:miter;stroke-opacity:1" transform="translate(-31.614 -152.548)"/><path d="M711.429 507.362a325 325 0 1 1-650 0 325 325 0 1 1 650 0z" style="fill:none;stroke:url(#e);stroke-width:50;stroke-miterlimit:4;stroke-dasharray:none;stroke-opacity:1" transform="translate(-33.757 -154.69)"/><path d="M711.429 507.362a325 325 0 1 1-650 0 325 325 0 1 1 650 0z" style="fill:none;stroke:url(#f);stroke-width:9.3096447;stroke-miterlimit:4;stroke-dasharray:none;stroke-opacity:1" transform="translate(-60.984 -190.885)scale(1.07415)"/><path d="M711.429 507.362a325 325 0 1 1-650 0 325 325 0 1 1 650 0z" style="fill:none;stroke:url(#g);stroke-width:10.87781811;stroke-miterlimit:4;stroke-dasharray:none;stroke-opacity:1" transform="translate(-1.859 -113.033)scale(.9193)"/></g><g style="display:inline"><path d="M115.082 245.09 354.055 3.81l237.45 241.297v96.55L354.011 100.31l-238.93 241.238zm0 134.219 238.973-241.28 237.45 241.297v96.55L354.011 234.53l-238.93 241.238zm0 134.219 238.973-241.28 237.45 241.297v96.55L354.011 368.749l-238.93 241.238z" style="fill:url(#h);fill-opacity:1;stroke:none;stroke-width:10;stroke-linecap:butt;stroke-miterlimit:4;stroke-dashoffset:0"/><path d="M125.094 249.156v68.188C201.4 240.265 277.722 163.2 354 86.094c75.915 76.93 151.655 154.032 227.5 231.031v-67.812L353.906 18.03zm0 134.22v68.187C201.4 374.484 277.722 297.42 354 220.313c75.915 76.93 151.655 154.032 227.5 231.03v-67.812l-227.594-231.28zm0 134.218v68.188C201.4 508.703 277.722 431.639 354 354.532c75.915 76.93 151.655 154.032 227.5 231.03V517.75L353.906 286.47z" style="fill:url(#i);fill-opacity:1;stroke:none;stroke-width:10;stroke-linecap:butt;stroke-miterlimit:4;stroke-dashoffset:0"/></g></svg>